<?xml version="1.0" encoding="utf-8"?>
<!-- Generator: Adobe Illustrator 15.0.0, SVG Export Plug-In . SVG Version: 6.00 Build 0)  -->
<!DOCTYPE svg PUBLIC "-//W3C//DTD SVG 1.1//EN" "http://www.w3.org/Graphics/SVG/1.1/DTD/svg11.dtd">
<svg version="1.1" id="图层_1" xmlns="http://www.w3.org/2000/svg" xmlns:xlink="http://www.w3.org/1999/xlink" x="0px" y="0px"
	 width="284.994px" height="50.667px" viewBox="0 0 284.994 50.667" enable-background="new 0 0 284.994 50.667"
	 xml:space="preserve">
<g>
	<path d="M28.895,5.257c10.175-2.179,17.882,5.385,17.302,10.764c-0.873,7.415-6.688,6.396-12.506,4.649
		C38.344,31.141,44.304,41.9,57.972,40.59c-2.909,3.055-9.014,5.816-14.684,1.165c-6.544-5.67-11.197-14.54-14.394-22.829v-2.47
		l1.015-0.729c3.635,3.783,16.867,7.415,13.522-2.326c-1.163-3.489-6.397-7.416-14.537-5.815V5.257L28.895,5.257z M28.895,40.299
		L28.895,40.299c2.035,0,3.78-1.743,3.78-3.779c0-2.181-1.745-3.925-3.78-3.925l0,0v1.455l0,0c1.306,0,2.323,1.16,2.323,2.47
		s-1.018,2.326-2.323,2.326l0,0V40.299z M23.95,7.006c0.727-0.294,1.453-0.584,2.035-0.874c1.019-0.291,2.035-0.58,2.909-0.875v2.33
		c-0.147,0-0.147,0-0.294,0c-1.596,0.58-3.051,1.16-4.65,1.89V7.006L23.95,7.006z M28.895,18.926
		c-0.294-0.725-0.439-1.31-0.729-2.035l0.729-0.436V18.926L28.895,18.926z M28.895,32.595v1.455c-1.31,0-2.329,1.16-2.329,2.47
		s1.02,2.326,2.329,2.326v1.453c-2.182,0-3.782-1.743-3.782-3.779C25.113,34.339,26.712,32.595,28.895,32.595L28.895,32.595z
		 M23.95,31.141v-1.454c1.306,0,2.325-1.016,2.325-2.326s-1.019-2.471-2.325-2.471v-1.454c2.035,0,3.78,1.745,3.78,3.925
		C27.73,29.396,25.985,31.141,23.95,31.141z M5.631,20.091c5.378-5.235,11.195-9.888,18.319-13.085v2.471
		c-5.234,2.76-10.034,6.834-14.687,12.065L5.631,20.091L5.631,20.091z M23.95,23.436v1.454c-1.31,0-2.325,1.16-2.325,2.471
		s1.015,2.326,2.325,2.326v1.454c-2.182,0-3.782-1.745-3.782-3.78C20.168,25.181,21.768,23.436,23.95,23.436z"/>
	<path d="M178.713,28.659V26.28c2.101-0.143,3.643-0.703,4.906-1.687c1.261-1.118,1.821-2.663,1.821-4.485
		c0-1.961-0.561-3.365-1.682-4.346c-1.121-1.122-2.664-1.682-4.768-1.682c-0.138,0-0.138,0-0.278,0v-2.383c0,0,0.141,0,0.278,0
		c3.227,0,5.748,0.838,7.571,2.242c1.822,1.541,2.804,3.505,2.804,6.169c0,2.667-0.981,4.627-2.944,6.172
		C184.459,27.819,181.936,28.659,178.713,28.659L178.713,28.659z M196.657,28.24c0.563-0.278,0.983-0.561,1.12-0.98
		c0.141-0.283,0.282-0.979,0.282-1.964V14.359h-1.261c-1.542,0-2.946,0.141-3.926,0.281c-1.122,0.28-2.104,0.561-2.804,0.981
		c0-0.42,0.281-0.981,0.42-1.542c0.279-0.56,0.422-0.984,0.422-1.12c0-0.142-0.143-0.425-0.143-0.845h-0.139h18.506l0,0
		c-0.14,0.42-0.14,0.703-0.14,0.845c0,0.136,0,0.56,0.28,1.12c0.281,0.561,0.422,1.122,0.563,1.542
		c-0.843-0.42-1.824-0.701-2.807-0.981c-1.119-0.141-2.38-0.281-3.926-0.281h-1.4v10.936c0,0.702,0.142,1.402,0.42,1.823
		c0.283,0.561,0.562,0.979,1.122,1.121H196.657z M178.713,11.697v2.383c-2.104,0.137-3.647,0.698-4.909,1.682
		c-1.264,1.121-1.825,2.663-1.825,4.626c0,1.821,0.562,3.225,1.688,4.205c1.121,1.126,2.802,1.687,4.764,1.687
		c0.142,0,0.142,0,0.283,0v2.379c-0.142,0-0.142,0-0.283,0c-3.082,0-5.746-0.697-7.57-2.243c-1.824-1.54-2.804-3.506-2.804-6.167
		c0-2.526,0.979-4.627,2.944-6.168C172.965,12.535,175.487,11.837,178.713,11.697L178.713,11.697z M113.656,28.659V26.28
		c1.963-0.143,3.646-0.703,4.767-1.687c1.263-1.118,1.964-2.663,1.964-4.485c0-1.961-0.561-3.365-1.683-4.346
		c-1.123-1.122-2.807-1.682-4.767-1.682c-0.139,0-0.281,0-0.281,0v-2.383h0.142c3.226,0,5.746,0.838,7.709,2.242
		c1.823,1.541,2.666,3.505,2.666,6.169c0,2.667-0.982,4.627-2.805,6.172C119.403,27.819,116.88,28.659,113.656,28.659
		L113.656,28.659z M137.632,25.998c1.399,0,2.804-0.143,3.926-0.421c1.262-0.281,2.244-0.701,2.944-1.122
		c-0.419,0.841-0.7,1.543-0.979,2.104c-0.282,0.561-0.282,0.843-0.282,1.121c0,0,0,0.14,0,0.282c0,0,0.141,0.137,0.282,0.278
		h-18.367l12.336-13.88h-5.187c-1.544,0-2.805,0.141-3.786,0.281c-0.981,0.28-1.963,0.561-2.806,0.981
		c0.282-0.701,0.564-1.404,0.701-1.96c0.142-0.565,0.281-0.843,0.281-0.985c0-0.141-0.139-0.281-0.281-0.561l0,0h17.249
		l-12.2,13.882H137.632L137.632,25.998z M149.831,14.359l0.137,10.936c0.143,0.842,0.143,1.54,0.423,1.964
		c0.281,0.42,0.561,0.702,1.121,0.98h-6.309c0.563-0.278,0.982-0.561,1.121-0.98c0.28-0.424,0.421-1.122,0.421-1.964V15.061
		c0-0.843-0.141-1.399-0.421-1.964c-0.139-0.42-0.559-0.702-1.121-0.981h7.432c0,0.142-0.141,0.142-0.141,0.142
		c0,0.137,0,0.137,0,0.278c0,0,0,0,0,0.141c0,0,0.141,0.143,0.141,0.284l9.112,12.617l-0.14-10.516c0-0.843,0-1.399-0.28-1.964
		c-0.281-0.42-0.563-0.702-1.122-0.981h6.027c-0.42,0.279-0.841,0.561-0.979,0.981c-0.283,0.282-0.283,0.984-0.283,1.824v0.14
		v11.637c0,0.421,0,0.703,0,0.981c0.142,0.14,0.283,0.419,0.422,0.561h-6.028c0.142-0.142,0.142-0.142,0.142-0.278
		c0.138,0,0.138-0.143,0.138-0.143s-0.138-0.14-0.138-0.281c0,0-0.142-0.137-0.142-0.278L149.831,14.359z M113.656,11.697v2.383
		c-2.103,0.137-3.785,0.698-4.906,1.682c-1.262,1.121-1.965,2.663-1.965,4.626c0,1.821,0.703,3.225,1.823,4.205
		c1.124,1.126,2.663,1.687,4.769,1.687c0,0,0.139,0,0.279,0v2.379c-0.14,0-0.14,0-0.279,0c-3.227,0-5.748-0.697-7.571-2.243
		c-1.824-1.54-2.804-3.506-2.804-6.167c0-2.526,0.979-4.627,2.944-6.168C107.768,12.535,110.432,11.837,113.656,11.697
		L113.656,11.697z M91.086,22.07v-2.523h0.419c1.821,0,3.083-0.28,3.783-0.561c0.703-0.42,1.122-1.122,1.122-1.961
		c0-0.984-0.419-1.686-0.978-1.964c-0.705-0.42-1.965-0.701-3.789-0.701h-0.557v-2.244h0.419c1.682,0,3.083,0,3.927,0.142
		c0.841,0.137,1.539,0.278,2.1,0.561c0.843,0.278,1.544,0.843,1.965,1.541c0.561,0.701,0.701,1.544,0.701,2.383
		c0,1.122-0.422,2.102-1.262,2.944c-0.982,0.702-2.243,1.263-3.925,1.541c0.698,0.282,1.399,0.702,1.96,1.121
		c0.561,0.426,1.124,1.126,1.823,2.105c0.142,0.139,0.422,0.421,0.703,0.841c0.982,1.54,1.823,2.523,2.662,2.944h-6.587
		c0.137-0.142,0.278-0.142,0.278-0.278c0.142-0.143,0.142-0.282,0.142-0.561c0-0.425-0.142-0.985-0.42-1.546
		c-0.283-0.56-0.702-1.12-1.262-1.682c-0.842-0.838-1.684-1.542-2.384-1.824C91.644,22.209,91.365,22.07,91.086,22.07z
		 M62.623,25.295c0,0.842,0,1.54,0.278,1.964c0.283,0.42,0.565,0.702,1.123,0.98h-6.451c0.423-0.278,0.843-0.561,0.983-0.98
		c0.28-0.562,0.419-1.122,0.419-1.964V15.061c0-0.843-0.139-1.399-0.419-1.823c-0.14-0.562-0.561-0.843-0.983-1.123h6.451
		c-0.557,0.279-0.84,0.561-1.123,0.981c-0.278,0.424-0.278,1.121-0.278,1.964v5.188l8.833-6.168c0.28-0.281,0.559-0.419,0.699-0.702
		c0.141-0.282,0.283-0.418,0.283-0.56c0-0.143,0-0.283-0.142-0.424c0-0.137-0.141-0.137-0.281-0.279h7.714
		c-0.702,0.279-1.262,0.561-1.964,0.981c-0.563,0.282-1.12,0.703-1.544,0.984l-6.026,4.067l7.008,7.708
		c0.563,0.561,0.982,0.98,1.544,1.404c0.418,0.278,0.982,0.702,1.54,0.98h-7.292c0.281-0.142,0.423-0.142,0.564-0.278
		c0-0.143,0.141-0.282,0.141-0.424c0-0.278-0.141-0.419-0.281-0.702c-0.142-0.277-0.423-0.556-0.84-0.98l-5.191-5.747l-4.764,3.367
		V25.295L62.623,25.295z M91.086,12.115v2.244h-5.47v5.188h5.47v2.523c-0.703-0.14-1.404-0.282-2.105-0.282h-3.365v3.507
		c0,0.842,0.141,1.402,0.422,1.964c0.139,0.42,0.558,0.702,1.123,0.98h-6.592c0.561-0.278,0.981-0.561,1.122-0.98
		c0.282-0.562,0.42-1.122,0.42-1.964V14.92c0-0.703-0.138-1.259-0.42-1.824c-0.282-0.42-0.561-0.702-1.122-0.981H91.086z"/>
	<path d="M232.27,10.717c0.558,0.137,0.98,0.137,1.259,0.279h0.141v2.383h0.844c0,0,0.138-0.141,0.42-0.418
		c0.282-0.142,0.419-0.284,0.562-0.284c0.417,0.284,0.843,0.562,0.982,0.703c0.421,0.283,0.699,0.561,0.84,0.702v0.561h-3.647v3.224
		h1.121c0,0,0.143-0.142,0.425-0.561c0.279-0.142,0.419-0.279,0.562-0.42c0,0,0.418,0.278,0.979,0.703
		c0.421,0.419,0.701,0.697,0.981,0.839v0.561h-4.067v1.262c-0.419,0-0.842,0.14-1.258,0.14c-0.142,0-0.142,0-0.142,0.142V10.717
		L232.27,10.717z M232.27,27.538h1.96v1.404l0,0c0.561-0.142,0.985-0.142,1.404-0.283c0.561,0,0.981-0.137,1.4-0.137v-6.031
		c0.142-0.142,0.282-0.282,0.561-0.561c-0.419-0.278-0.979-0.561-1.4-0.839c-0.141-0.142-0.561-0.424-0.979-0.843
		c-0.143,0.14-0.425,0.282-0.702,0.418c-0.283,0.142-0.423,0.283-0.564,0.424h-1.679v1.258h1.96v4.066h-1.96V27.538z
		 M230.867,10.575c0.283,0,0.844,0.142,1.403,0.142l0,0v9.813c-0.424,0-0.842,0.137-1.263,0.137h-0.141v-1.681h-2.385v-1.122h2.385
		v-3.224h-1.682c-0.142,0.28-0.424,0.699-0.562,0.981c0,0.141,0,0.141-0.142,0.282v-4.768h0.42c0.424,0.141,0.843,0.278,1.263,0.278
		c-0.14,0.283-0.14,0.561-0.278,0.843c0,0.137,0,0.418-0.142,0.839l0.142,0.282h0.98V10.575L230.867,10.575z M232.27,21.091v1.258
		h-2.105v4.066h2.105v1.122h-2.105v0.984l-1.263,0.137l-0.42,0.142v-8.133c0.142,0,0.142,0,0.279,0
		c0.701,0.283,1.264,0.424,1.545,0.424H232.27z M228.482,18.986h-2.242v9.394l-1.264,0.142c-0.418,0.137-0.843,0.137-1.402,0.137
		v-0.84h-0.138v-1.261h0.138v-2.244h-0.138v-1.262h0.138V21.93h-0.138v-1.263c0.138,0,0.278,0,0.419,0.142v-4.066h-0.419v-1.263
		c0.138-0.14,0.419-0.14,0.561-0.278l0.702-0.424c0.137,0.143,0.561,0.283,0.839,0.562c0.425,0.282,0.843,0.564,1.264,0.701
		c0.141-0.561,0.28-1.541,0.423-2.662c0.141-0.843,0.141-1.542,0.278-2.102l0.139-0.281l0.841,0.14v4.768
		c-0.136,0.419-0.419,0.697-0.559,1.121c-0.282,0-0.559-0.142-0.842-0.142c-0.423-0.141-0.701-0.141-0.842-0.282v1.264h2.242V18.986
		L228.482,18.986z M223.436,11.697v1.122h3.506v-0.561c-0.283-0.142-0.562-0.42-0.979-0.701l-0.986-0.703
		c-0.141,0-0.277,0.142-0.56,0.282c-0.137,0.278-0.283,0.42-0.562,0.561H223.436L223.436,11.697z M228.482,20.667
		c-0.419-0.278-0.841-0.278-1.117-0.418v8.693h0.138l0.979-0.142V20.667z M223.436,27.819h-1.823v-1.261h1.823V27.819
		L223.436,27.819z M221.613,11.697h1.823v1.122h-0.277v2.803c0.135,0,0.135-0.142,0.277-0.142v1.263h-0.42v3.788
		c0.143,0,0.277,0,0.42,0.137v1.263h-0.277c-0.425,0-0.704-0.142-0.984-0.278c-0.142-0.142-0.279-0.561-0.279-0.843v-4.066
		c-0.141,0-0.282,0-0.282,0v-1.263c0.142,0,0.142,0,0.282,0v-2.661h-0.282V11.697L221.613,11.697z M223.436,23.052v1.262h-1.823
		v-1.262H223.436z M221.613,27.819h-1.824v-1.261h1.824V27.819L221.613,27.819z M219.789,15.339L219.789,15.339v-2.521l0,0v-1.122
		h1.824v1.122h-0.277v2.521c0,0,0.136,0,0.277,0.14v1.263c-0.142,0-0.277,0-0.42,0v2.804v0.281
		c-0.141,0.561-0.282,0.981-0.418,1.264c-0.143,0.418-0.425,0.839-0.565,1.118c-0.139,0-0.278-0.139-0.421-0.139v-0.842
		c0-0.278,0-0.561,0.143-0.979c0-0.421,0.14-0.702,0.14-0.843v-2.663h-0.282V15.339L219.789,15.339z M221.613,23.052v1.262h-1.824
		v-1.262H221.613z M219.789,27.819h-0.277v0.703c-0.283,0-0.701,0.137-1.262,0.278l-1.123,0.142h-0.14V14.778
		c0.419,0.143,0.841,0.143,1.263,0.283c0.277,0.141,0.839,0.279,1.262,0.419l0.277-0.14v1.403h-0.277v4.909
		c0-0.142,0.138-0.282,0.277-0.424l0,0v0.842c-0.14-0.14-0.14-0.14-0.277-0.14v1.122h0.277v1.262h-0.277v2.244h0.277V27.819
		L219.789,27.819z M219.789,12.818h-3.082v-1.122h3.082V12.818z"/>
	<path d="M243.904,10.434l1.688,0.419l1.679,0.282c-0.279,0.561-0.558,1.399-0.841,2.243c-0.142,0.702-0.42,1.122-0.561,1.542
		l-0.142,0.14v2.243c0.561-0.839,1.126-2.102,1.965-3.643c0.421-0.985,0.839-1.964,1.263-3.086l1.682,0.421
		c0.703,0.14,1.264,0.281,1.682,0.418l-0.561,0.98c-0.282,0.424-0.418,0.702-0.418,1.125h6.728c0.141-0.142,0.421-0.282,0.701-0.56
		c0.138-0.142,0.421-0.284,0.562-0.425l1.121,0.843c0.42,0.283,0.702,0.561,0.845,0.702v0.698h-6.733v3.087h2.945
		c0.137-0.142,0.419-0.42,0.56-0.561c0.279-0.142,0.421-0.279,0.701-0.42c0.279,0.278,0.699,0.561,0.981,0.839
		c0.419,0.283,0.701,0.424,0.979,0.703v0.701h-6.167v3.223h3.082l0.563-0.419c0.28-0.142,0.561-0.42,0.698-0.42
		c0.702,0.42,0.985,0.561,0.985,0.7c0.419,0.282,0.702,0.565,0.979,0.843v0.562h-6.309v4.767l-1.682,0.278
		c-0.702,0.142-1.263,0.142-1.683,0.283h-0.142V14.778h-0.838c-0.425,0.424-0.844,0.984-1.264,1.404
		c-0.563,0.701-1.121,1.262-1.685,1.683l-0.279,0.282c-0.138-0.142-0.42-0.282-0.703-0.561l-0.561-0.282V28.38
		c-0.419,0.142-0.98,0.142-1.54,0.278l-1.683,0.283l0,0v-9.675c-0.283,0.138-0.424,0.28-0.561,0.42
		c-0.141,0.141-0.282,0.279-0.419,0.279c-0.283-0.138-0.561-0.279-0.561-0.419c-0.283-0.142-0.425-0.28-0.561-0.42
		c0.697-1.262,1.258-2.525,1.817-3.925c0.565-1.403,1.122-2.944,1.545-4.206C243.766,10.854,243.766,10.575,243.904,10.434z"/>
	<g>
		<path d="M120.753,45.985h-1.208c0.069-0.491,0.113-0.943,0.113-1.49v-3.163c0-0.562-0.03-1.04-0.113-1.42
			c0.59,0.084,1.461,0.141,2.516,0.141c1.11,0,2.08-0.07,2.515-0.141c-0.084,0.465-0.112,0.915-0.112,1.42v3.163
			c0,0.506,0.028,0.999,0.099,1.42h-1.209v-1.013h-2.601V45.985z M123.354,40.995h-2.601v2.966h2.601V40.995z M128.724,35.232v2.543
			c0,0.323,0.027,0.676,0.084,1.056c-0.548-0.085-1.449-0.156-3.725-0.156c-1.786,0-2.924,0.071-3.726,0.171
			c0.07-0.367,0.099-0.733,0.099-1.07v-2.543c0-0.479-0.043-0.76-0.099-1.041c0.689,0.099,1.56,0.154,3.726,0.154
			c2.136,0,3.162-0.069,3.725-0.154C128.738,34.543,128.724,34.865,128.724,35.232z M122.665,37.662h4.78v-2.305h-4.78V37.662z
			 M126.812,45.943h-1.209c0.07-0.449,0.098-0.929,0.098-1.49v-3.205c0-0.449-0.028-0.998-0.098-1.406
			c0.534,0.07,1.533,0.141,2.628,0.127c1.083-0.013,2.011-0.07,2.559-0.141c-0.056,0.365-0.098,0.899-0.098,1.405v3.15
			c0,0.49,0.042,1.052,0.084,1.418h-1.223v-0.955h-2.741V45.943z M129.553,40.938h-2.741v2.952h2.741V40.938z"/>
		<path d="M141.763,40.459h2.376c-0.014,0.211-0.044,0.703-0.044,1.224v2.896c0,0.675,0.016,1.083,0.059,1.646h-1.098v-4.836h-1.35
			c-0.154,2.01-0.491,3.345-1.152,4.737c-0.267-0.423-0.563-0.662-0.915-0.787c0.689-1.266,1.041-2.362,1.154-7.337
			c0.027-1.449-0.043-2.813-0.126-3.529c0.45,0.055,1.053,0.071,1.18,0.042c0.226-0.042,0.253,0.1,0.112,0.281
			c-0.112,0.126-0.154,0.899-0.154,3.036h1.349v-2.053c0-0.997-0.014-1.574-0.042-1.925c0.422,0.084,0.956,0.141,1.209,0.126
			c0.227-0.015,0.281,0.042,0.07,0.239c-0.126,0.113-0.237,0.449-0.237,0.844v2.755c0.307,0,0.534-0.015,0.729-0.057v1.11
			c-0.309-0.057-0.844-0.071-1.378-0.071h-1.7C141.792,39.407,141.792,39.956,141.763,40.459z M149.986,44.677
			c0,0.872,0.042,1.631,0.085,1.912h-1.236c0.056-0.281,0.083-1.027,0.083-1.912v-0.746h-2.01c-1.012,0-1.771,0.029-2.291,0.085
			v-1.11c0.353,0.043,0.787,0.056,1.349,0.07c0.45-0.647,0.856-1.334,1.181-2.051c-0.673,0.013-1.293,0.041-1.842,0.069
			c0.042-0.168,0.071-0.618,0.071-0.984v-3.879c0-0.367-0.029-0.788-0.071-0.984c0.675,0.056,1.183,0.069,2.263,0.069
			c0.185-0.759,0.24-1.236,0.255-1.658c0.478,0.112,1.013,0.184,1.434,0.184c0.21,0,0.238,0.127,0.069,0.224
			c-0.21,0.127-0.407,0.408-0.815,1.251h1.154c0.927,0,1.615-0.014,2.304-0.069c-0.042,0.168-0.069,0.617-0.069,0.984v3.879
			c0,0.366,0.027,0.816,0.069,0.984c-0.576-0.043-1.237-0.057-1.981-0.069v2.051c1.293,0,1.995-0.015,2.516-0.07v1.11
			c-0.506-0.056-1.237-0.085-2.516-0.085V44.677z M148.286,36.075h-1.927v1.574h1.801C148.243,37.115,148.286,36.581,148.286,36.075
			z M147.991,38.465h-1.632v1.559h1.167C147.724,39.503,147.877,38.985,147.991,38.465z M148.917,40.925h-0.758
			c-0.338,0.744-0.746,1.432-1.196,2.051h1.954V40.925z M148.509,40.024h2.361v-1.559h-1.927
			C148.834,38.999,148.692,39.52,148.509,40.024z M149.101,37.649h1.77v-1.574h-1.615C149.242,36.607,149.184,37.142,149.101,37.649
			z"/>
		<path d="M174.282,46.35h-1.195c0.056-0.856,0.071-1.49,0.071-2.334v-3.289c-0.437,0.549-0.915,1.083-1.505,1.716
			c-0.225-0.493-0.421-0.788-0.702-1.097c1.265-0.983,2.149-2.01,3.245-4.006h-1.518c-0.548,0-1.011,0.056-1.391,0.153v-1.223
			c0.562,0.084,0.928,0.099,2.248,0.099c1.281,0,1.785-0.027,2.249-0.113c-0.14,0.409-0.435,1.111-0.646,1.464
			c-0.309,0.533-0.59,0.997-0.856,1.419V46.35z M173.817,35.85c-0.169-0.717-0.407-1.278-0.814-1.828l1.152-0.407
			c0.337,0.632,0.549,1.083,0.814,1.785L173.817,35.85z M175.28,41.767c-0.268-0.619-0.576-1.236-0.915-1.785l0.689-0.505
			c0.45,0.575,0.843,1.138,1.139,1.671L175.28,41.767z M178.82,43.383c-0.658,1.223-1.501,2.138-2.726,2.994
			c-0.253-0.351-0.759-0.716-1.167-0.843c1.421-0.563,2.502-1.715,3.094-2.769c0.548-0.956,0.898-2.376,0.94-4.133
			c0.028-1.378,0.028-1.828-0.027-2.193c0.394,0.071,0.982,0.099,1.334,0.071c0.156-0.015,0.197,0.096,0.057,0.195
			c-0.083,0.058-0.127,0.269-0.378,2.841c-0.058,0.548-0.141,1.067-0.254,1.531c0.338,0.042,0.815,0.069,0.956,0.056
			c0.239-0.014,0.281,0.058,0.098,0.197c-0.083,0.07-0.127,0.182-0.127,0.352v2.7c0,0.477,0.142,0.589,0.76,0.589
			c1.125,0,1.307-0.169,1.574-1.617c0.295,0.309,0.815,0.576,1.153,0.605c-0.324,1.687-0.619,2.024-2.714,2.011
			c-1.561-0.015-1.854-0.324-1.854-1.393v-2.896C179.355,42.303,179.118,42.864,178.82,43.383z M181.435,41.627v-6.214h-3.653v6.34
			h-1.209c0.084-0.591,0.14-1.335,0.14-2.221v-4.006c0-0.605-0.014-0.829-0.056-1.124c0.422,0.055,1.477,0.082,2.938,0.082
			c1.729,0,2.572-0.027,2.967-0.082c-0.043,0.28-0.057,0.505-0.057,1.124v3.894c0,0.913,0.041,1.615,0.125,2.207H181.435z"/>
		<path d="M198.454,42.47c-0.437,2.29-1.209,3.149-5.201,4.048c-0.127-0.422-0.353-0.802-0.731-1.265
			c1.996-0.071,3.569-0.703,4.176-1.392c0.603-0.674,0.729-1.673,0.729-3.304c0.366,0.127,0.957,0.254,1.322,0.269
			c0.224,0.013,0.252,0.099,0.084,0.239C198.735,41.148,198.608,41.627,198.454,42.47z M201.488,33.587
			c0.493,0.309,0.956,0.549,1.309,0.659c0.225,0.071,0.239,0.127,0.027,0.254c-0.478,0.295-0.955,0.843-1.673,1.983
			c1.167,0,2.433-0.044,3.093-0.1v2.402h-1.292v-1.25h-9.011v1.419h-1.251v-2.571c1.082,0.056,2.263,0.1,3.725,0.1h3.557
			C200.645,35.625,201.18,34.472,201.488,33.587z M194.897,36.271c-0.254-0.547-0.619-1.055-1.012-1.489l0.983-0.66
			c0.464,0.492,0.759,0.898,1.11,1.517L194.897,36.271z M201.038,43.047v-3.346h-5.229v3.458h-1.265
			c0.086-0.591,0.099-0.956,0.099-1.518v-1.913c0-0.604-0.013-0.857-0.084-1.152c0.703,0.07,1.406,0.084,3.879,0.084
			c2.432,0,3.262-0.014,3.908-0.084c-0.07,0.281-0.099,0.534-0.099,1.152v1.913c0,0.449,0.015,0.871,0.127,1.405H201.038z
			 M197.792,35.906c-0.1-0.618-0.212-1.152-0.422-1.77l1.194-0.366c0.225,0.616,0.38,1.082,0.563,1.799L197.792,35.906z
			 M201.517,46.096c-2.671,0-2.782-0.111-2.782-1.377v-1.251c0-0.394-0.016-0.689-0.058-0.914c0.281,0.043,0.983,0.07,1.183,0.043
			c0.21-0.028,0.28,0.057,0.098,0.196c-0.084,0.07-0.113,0.183-0.113,0.366v1.433c0,0.422,0.197,0.534,1.616,0.534
			c1.476,0,1.716-0.323,1.997-1.884c0.421,0.549,0.786,0.688,1.223,0.718C204.103,45.997,203.878,46.096,201.517,46.096z"/>
		<path d="M224.182,40.432c-0.154-0.324-0.521-0.789-0.856-1.012c0.97-0.83,2.501-3.656,3.077-5.806
			c0.31,0.21,0.858,0.478,1.308,0.576c0.269,0.056,0.238,0.154,0.043,0.226c-0.155,0.056-0.352,0.393-1.027,1.673v8.166
			c0,0.845,0,1.505,0.044,2.475h-1.337c0.112-0.929,0.141-1.576,0.141-2.461v-6.058C225.026,39.152,224.534,39.956,224.182,40.432z
			 M234.402,45.69l-0.928,1.04c-0.577-0.733-2.966-2.531-4.035-2.896l0.802-0.941c0.338,0.196,0.843,0.521,1.405,0.885
			c0.76-0.772,1.238-1.307,1.73-2.023h-4.541c0.322-0.577,0.646-1.335,0.913-2.391c-0.856,0.016-1.926,0.044-2.417,0.127v-1.223
			c0.534,0.042,1.757,0.099,2.628,0.126c0.128-0.632,0.225-1.181,0.31-1.658c-0.717,0-1.771,0.014-2.207,0.07v-1.209
			c0.492,0.072,1.673,0.141,2.376,0.168c0.153-0.955,0.211-1.56,0.211-2.136c0.322,0.1,1.279,0.281,1.645,0.31
			c0.225,0.014,0.225,0.07-0.057,0.296c-0.127,0.111-0.281,0.479-0.562,1.53h1.896c0.648,0,1.294-0.027,1.869-0.096l-0.014,1.207
			c-0.562-0.098-1.207-0.141-1.855-0.141h-2.135c-0.113,0.465-0.239,1.026-0.395,1.672h2.909c0.772-0.014,1.546-0.055,2.222-0.14
			v1.21c-0.688-0.099-1.463-0.141-2.222-0.114h-3.12c-0.1,0.451-0.211,0.941-0.338,1.477h2.586c0.76,0,1.448-0.055,2.025-0.126
			v1.082c-0.464,0.24-1.42,1.056-2.615,2.529C233.277,44.86,234.036,45.38,234.402,45.69z"/>
		<path d="M245.921,37.86c-0.603,0.015-1.08,0.056-1.433,0.126v-1.194c0.353,0.07,0.83,0.099,1.433,0.113
			c0-1.576-0.069-2.378-0.153-2.799c0.506,0.099,0.787,0.113,1.181,0.099c0.436-0.014,0.506,0.113,0.21,0.353
			c-0.196,0.155-0.252,0.268-0.252,0.506v1.827c0.421-0.015,0.759-0.043,1.04-0.099v1.194c-0.281-0.056-0.619-0.097-1.04-0.111v1.7
			c0.464-0.196,0.871-0.395,1.193-0.576c-0.041,0.422,0.016,0.73,0.155,1.067c-0.394,0.156-0.871,0.353-1.349,0.577v4.315
			c0,0.843-0.142,1.11-1.869,1.293c-0.029-0.506-0.099-0.73-0.465-1.334c1.265,0.153,1.349,0.041,1.349-0.395v-3.431
			c-0.519,0.254-0.982,0.508-1.278,0.731c-0.042-0.408-0.154-0.957-0.296-1.351c0.494-0.154,1.042-0.336,1.574-0.518V37.86z
			 M250.055,46.377h-1.025c0.041-0.49,0.055-0.856,0.055-1.645v-3.359c-0.267,0.21-0.548,0.422-0.844,0.632
			c-0.167-0.238-0.491-0.477-0.801-0.632c1.421-0.787,2.728-2.065,3.36-3.203c-0.887,0.014-1.673,0.041-2.235,0.111V37.34
			c0.772,0.07,1.982,0.098,3.262,0.098V35.47c-1.181,0.126-2.293,0.225-2.925,0.254c-0.041-0.337-0.153-0.718-0.352-1.026
			c1.392,0.056,2.925-0.057,4.331-0.281c0.856-0.141,1.939-0.465,2.332-0.688c0.212,0.408,0.547,0.886,0.731,1.025
			c0.182,0.141,0.155,0.323-0.015,0.31c-0.31-0.028-0.66-0.015-0.999,0.028c-0.603,0.084-1.348,0.169-2.107,0.266v2.081h0.9
			c0.364-0.899,0.534-1.393,0.604-1.828c0.267,0.169,0.786,0.353,1.138,0.395c0.126,0.014,0.141,0.1,0,0.211
			c-0.169,0.111-0.52,0.59-0.885,1.223c0.857-0.015,1.545-0.042,2.094-0.098v0.941c-0.73-0.07-1.7-0.111-2.979-0.111
			c0.997,1.25,2.122,1.911,3.372,2.206c-0.281,0.253-0.535,0.744-0.66,1.181c-0.269-0.142-0.521-0.295-0.745-0.45v3.458
			c0,0.787,0.014,1.166,0.056,1.644h-1.025v-0.633h-4.639V46.377z M250.012,37.327c-0.153-0.366-0.323-0.661-0.561-1.014
			l0.982-0.463c0.127,0.336,0.268,0.646,0.493,1.025L250.012,37.327z M255.171,40.785c-1.053-0.747-1.588-1.448-2.192-2.614h-0.155
			c0,0.645,0.027,1.432,0.071,2.177h-1.139c0.042-0.745,0.07-1.532,0.07-2.177h-0.184c-0.435,1.038-1.026,1.84-1.856,2.614H255.171z
			 M250.055,41.57v1.224h1.87V41.57H250.055z M250.055,44.832h1.87V43.54h-1.87V44.832z M254.694,41.57h-1.828v1.224h1.828V41.57z
			 M254.694,43.54h-1.828v1.292h1.828V43.54z"/>
	</g>
</g>
<g>
	<path d="M28.284,133.413c14.282-3.059,25.099,7.557,24.285,15.107c-1.225,10.408-9.387,8.977-17.554,6.527
		c6.533,14.695,14.898,29.797,34.083,27.959c-4.083,4.287-12.653,8.162-20.611,1.635c-9.186-7.959-15.716-20.408-20.204-32.043
		v-3.467l1.425-1.023c5.102,5.311,23.674,10.408,18.979-3.264c-1.631-4.898-8.979-10.408-20.404-8.162V133.413L28.284,133.413z
		 M28.284,182.598L28.284,182.598c2.856,0,5.305-2.447,5.305-5.305c0-3.061-2.449-5.51-5.305-5.51l0,0v2.043l0,0
		c1.833,0,3.261,1.629,3.261,3.467s-1.428,3.264-3.261,3.264l0,0V182.598z M21.344,135.868c1.021-0.412,2.039-0.82,2.856-1.227
		c1.431-0.408,2.856-0.814,4.083-1.229v3.27c-0.207,0-0.207,0-0.413,0c-2.24,0.814-4.282,1.629-6.527,2.652V135.868L21.344,135.868z
		 M28.284,152.598c-0.413-1.018-0.617-1.838-1.024-2.855l1.024-0.611V152.598L28.284,152.598z M28.284,171.784v2.043
		c-1.838,0-3.269,1.629-3.269,3.467s1.431,3.264,3.269,3.264v2.041c-3.063,0-5.308-2.447-5.308-5.305
		C22.976,174.233,25.221,171.784,28.284,171.784L28.284,171.784z M21.344,169.743v-2.041c1.833,0,3.264-1.426,3.264-3.264
		c0-1.84-1.431-3.469-3.264-3.469v-2.041c2.856,0,5.305,2.449,5.305,5.51C26.649,167.293,24.2,169.743,21.344,169.743z
		 M-4.369,154.233c7.548-7.348,15.713-13.879,25.713-18.365v3.467c-7.348,3.875-14.084,9.594-20.614,16.936L-4.369,154.233
		L-4.369,154.233z M21.344,158.928v2.041c-1.838,0-3.264,1.629-3.264,3.469c0,1.838,1.425,3.264,3.264,3.264v2.041
		c-3.063,0-5.309-2.449-5.309-5.305C16.035,161.377,18.281,158.928,21.344,158.928z"/>
	<path d="M248.571,166.258v-3.34c2.949-0.199,5.111-0.986,6.885-2.367c1.771-1.568,2.559-3.736,2.559-6.295
		c0-2.752-0.787-4.723-2.361-6.1c-1.574-1.574-3.738-2.361-6.691-2.361c-0.193,0-0.193,0-0.391,0v-3.346c0,0,0.197,0,0.391,0
		c4.529,0,8.068,1.178,10.627,3.148c2.559,2.162,3.936,4.92,3.936,8.658c0,3.742-1.377,6.494-4.133,8.662
		C256.635,165.081,253.094,166.258,248.571,166.258L248.571,166.258z M273.756,165.67c0.791-0.391,1.379-0.787,1.572-1.377
		c0.197-0.396,0.396-1.375,0.396-2.756v-15.35h-1.771c-2.164,0-4.135,0.197-5.51,0.395c-1.574,0.393-2.953,0.787-3.936,1.377
		c0-0.59,0.395-1.377,0.59-2.164c0.393-0.785,0.592-1.381,0.592-1.572c0-0.199-0.199-0.596-0.199-1.184h-0.195h25.975l0,0
		c-0.195,0.588-0.195,0.984-0.195,1.184c0,0.191,0,0.787,0.393,1.572c0.395,0.787,0.592,1.574,0.791,2.164
		c-1.184-0.59-2.561-0.984-3.941-1.377c-1.57-0.197-3.34-0.395-5.51-0.395h-1.965v15.35c0,0.984,0.199,1.969,0.59,2.559
		c0.396,0.787,0.787,1.375,1.574,1.574H273.756z M248.571,142.45v3.346c-2.953,0.193-5.121,0.98-6.891,2.361
		c-1.773,1.574-2.561,3.738-2.561,6.494c0,2.555,0.787,4.525,2.367,5.9c1.574,1.58,3.932,2.367,6.688,2.367c0.197,0,0.197,0,0.396,0
		v3.34c-0.199,0-0.199,0-0.396,0c-4.328,0-8.066-0.979-10.627-3.148c-2.561-2.162-3.936-4.92-3.936-8.656
		c0-3.545,1.375-6.494,4.133-8.658C240.502,143.627,244.042,142.649,248.571,142.45L248.571,142.45z M157.256,166.258v-3.34
		c2.756-0.199,5.117-0.986,6.691-2.367c1.771-1.568,2.756-3.736,2.756-6.295c0-2.752-0.787-4.723-2.361-6.1
		c-1.576-1.574-3.939-2.361-6.691-2.361c-0.195,0-0.395,0-0.395,0v-3.346h0.199c4.527,0,8.064,1.178,10.82,3.148
		c2.559,2.162,3.742,4.92,3.742,8.658c0,3.742-1.379,6.494-3.938,8.662C165.323,165.081,161.782,166.258,157.256,166.258
		L157.256,166.258z M190.909,162.522c1.965,0,3.936-0.199,5.51-0.59c1.771-0.395,3.15-0.984,4.133-1.574
		c-0.588,1.18-0.982,2.164-1.375,2.951c-0.396,0.787-0.396,1.184-0.396,1.574c0,0,0,0.197,0,0.396c0,0,0.197,0.191,0.396,0.391
		h-25.779l17.314-19.482h-7.281c-2.166,0-3.936,0.197-5.313,0.395c-1.377,0.393-2.756,0.787-3.939,1.377
		c0.396-0.984,0.793-1.971,0.984-2.752c0.199-0.793,0.395-1.184,0.395-1.381c0-0.199-0.195-0.396-0.395-0.787l0,0h24.209
		l-17.123,19.482H190.909L190.909,162.522z M208.03,146.188l0.193,15.35c0.199,1.182,0.199,2.162,0.592,2.756
		c0.395,0.59,0.787,0.986,1.574,1.377h-8.855c0.789-0.391,1.379-0.787,1.574-1.377c0.393-0.594,0.592-1.574,0.592-2.756v-14.365
		c0-1.184-0.199-1.965-0.592-2.758c-0.195-0.588-0.785-0.984-1.574-1.375h10.432c0,0.197-0.197,0.197-0.197,0.197
		c0,0.193,0,0.193,0,0.391c0,0,0,0,0,0.199c0,0,0.197,0.197,0.197,0.396l12.791,17.709l-0.195-14.76c0-1.184,0-1.965-0.395-2.758
		c-0.395-0.588-0.789-0.984-1.574-1.375h8.459c-0.588,0.391-1.18,0.787-1.375,1.375c-0.396,0.396-0.396,1.381-0.396,2.561v0.197
		v16.334c0,0.59,0,0.986,0,1.377c0.199,0.197,0.396,0.588,0.592,0.787h-8.461c0.197-0.199,0.197-0.199,0.197-0.391
		c0.195,0,0.195-0.199,0.195-0.199s-0.195-0.197-0.195-0.396c0,0-0.197-0.191-0.197-0.391L208.03,146.188z M157.256,142.45v3.346
		c-2.951,0.193-5.313,0.98-6.887,2.361c-1.771,1.574-2.758,3.738-2.758,6.494c0,2.555,0.986,4.525,2.559,5.9
		c1.578,1.58,3.738,2.367,6.693,2.367c0,0,0.195,0,0.393,0v3.34c-0.197,0-0.197,0-0.393,0c-4.529,0-8.068-0.979-10.627-3.148
		c-2.561-2.162-3.936-4.92-3.936-8.656c0-3.545,1.375-6.494,4.133-8.658C148.991,143.627,152.731,142.649,157.256,142.45
		L157.256,142.45z M125.577,157.012v-3.543h0.588c2.557,0,4.328-0.393,5.311-0.787c0.986-0.59,1.574-1.574,1.574-2.752
		c0-1.383-0.588-2.367-1.373-2.758c-0.988-0.59-2.758-0.984-5.318-0.984h-0.781v-3.148h0.588c2.361,0,4.328,0,5.512,0.197
		c1.182,0.193,2.16,0.391,2.947,0.787c1.184,0.391,2.168,1.184,2.758,2.164c0.787,0.984,0.984,2.168,0.984,3.346
		c0,1.574-0.592,2.949-1.771,4.133c-1.379,0.984-3.148,1.771-5.51,2.162c0.98,0.396,1.965,0.986,2.752,1.574
		c0.787,0.596,1.576,1.58,2.559,2.955c0.199,0.193,0.592,0.59,0.986,1.18c1.379,2.162,2.559,3.543,3.736,4.133h-9.246
		c0.193-0.199,0.391-0.199,0.391-0.391c0.199-0.199,0.199-0.396,0.199-0.787c0-0.596-0.199-1.383-0.59-2.17
		c-0.396-0.785-0.984-1.572-1.771-2.359c-1.182-1.178-2.363-2.164-3.346-2.561C126.358,157.206,125.968,157.012,125.577,157.012z
		 M85.625,161.538c0,1.182,0,2.162,0.391,2.756c0.396,0.59,0.793,0.986,1.576,1.377h-9.055c0.594-0.391,1.184-0.787,1.381-1.377
		c0.393-0.787,0.588-1.574,0.588-2.756v-14.365c0-1.184-0.195-1.965-0.588-2.559c-0.197-0.787-0.787-1.184-1.381-1.574h9.055
		c-0.783,0.391-1.18,0.787-1.576,1.375c-0.391,0.596-0.391,1.574-0.391,2.758v7.281l12.399-8.658
		c0.393-0.395,0.783-0.588,0.98-0.984s0.396-0.588,0.396-0.787c0-0.197,0-0.396-0.199-0.594c0-0.193-0.197-0.193-0.395-0.391h10.828
		c-0.986,0.391-1.771,0.787-2.758,1.375c-0.789,0.396-1.57,0.986-2.166,1.381l-8.459,5.709l9.836,10.818
		c0.789,0.787,1.379,1.377,2.168,1.971c0.588,0.391,1.379,0.986,2.162,1.377h-10.234c0.395-0.199,0.594-0.199,0.791-0.391
		c0-0.199,0.197-0.396,0.197-0.596c0-0.391-0.197-0.588-0.395-0.984c-0.199-0.391-0.594-0.781-1.18-1.377l-7.286-8.066l-6.688,4.727
		V161.538L85.625,161.538z M125.577,143.04v3.148h-7.678v7.281h7.678v3.543c-0.986-0.197-1.971-0.396-2.955-0.396h-4.723v4.922
		c0,1.182,0.197,1.969,0.592,2.756c0.195,0.59,0.783,0.986,1.576,1.377h-9.252c0.787-0.391,1.377-0.787,1.574-1.377
		c0.396-0.787,0.59-1.574,0.59-2.756v-14.563c0-0.986-0.193-1.768-0.59-2.561c-0.396-0.588-0.787-0.984-1.574-1.375H125.577z"/>
	<path d="M323.743,141.075c0.783,0.191,1.377,0.191,1.768,0.391h0.197v3.346h1.184c0,0,0.193-0.197,0.59-0.588
		c0.396-0.199,0.588-0.396,0.787-0.396c0.588,0.396,1.184,0.787,1.381,0.984c0.59,0.396,0.98,0.787,1.178,0.984v0.787h-5.119v4.525
		h1.574c0,0,0.199-0.199,0.596-0.787c0.391-0.199,0.588-0.391,0.787-0.59c0,0,0.588,0.391,1.375,0.986
		c0.59,0.588,0.984,0.979,1.377,1.178v0.787h-5.709v1.771c-0.588,0-1.182,0.197-1.766,0.197c-0.199,0-0.199,0-0.199,0.199V141.075
		L323.743,141.075z M323.743,164.684h2.752v1.971l0,0c0.787-0.197,1.383-0.197,1.971-0.396c0.787,0,1.377-0.191,1.965-0.191v-8.465
		c0.199-0.199,0.396-0.396,0.787-0.787c-0.588-0.391-1.375-0.787-1.965-1.178c-0.197-0.199-0.787-0.596-1.375-1.184
		c-0.199,0.197-0.596,0.396-0.986,0.588c-0.396,0.199-0.594,0.396-0.791,0.596h-2.357v1.766h2.752v5.707h-2.752V164.684z
		 M321.774,140.875c0.396,0,1.184,0.199,1.969,0.199l0,0v13.775c-0.594,0-1.182,0.191-1.771,0.191h-0.197v-2.359h-3.348v-1.574
		h3.348v-4.525h-2.361c-0.199,0.393-0.594,0.98-0.787,1.377c0,0.197,0,0.197-0.199,0.396v-6.693h0.59
		c0.594,0.199,1.184,0.391,1.771,0.391c-0.197,0.396-0.197,0.787-0.391,1.184c0,0.193,0,0.59-0.197,1.178l0.197,0.396h1.377V140.875
		L321.774,140.875z M323.743,155.637v1.766h-2.955v5.707h2.955v1.574h-2.955v1.383l-1.771,0.191l-0.59,0.199v-11.416
		c0.199,0,0.199,0,0.393,0c0.984,0.396,1.771,0.596,2.168,0.596H323.743z M318.426,152.682h-3.146v13.186l-1.773,0.199
		c-0.588,0.191-1.184,0.191-1.969,0.191v-1.178h-0.193v-1.771h0.193v-3.148h-0.193v-1.771h0.193v-1.574h-0.193v-1.773
		c0.193,0,0.391,0,0.588,0.199v-5.707h-0.588v-1.773c0.193-0.197,0.588-0.197,0.787-0.391l0.984-0.594
		c0.193,0.199,0.787,0.396,1.178,0.787c0.596,0.396,1.184,0.793,1.773,0.984c0.197-0.787,0.395-2.162,0.594-3.736
		c0.197-1.184,0.197-2.162,0.391-2.949l0.193-0.396l1.182,0.197v6.693c-0.191,0.588-0.588,0.979-0.785,1.574
		c-0.396,0-0.783-0.199-1.18-0.199c-0.594-0.197-0.984-0.197-1.182-0.396v1.773h3.146V152.682L318.426,152.682z M311.344,142.45
		v1.574h4.92v-0.787c-0.396-0.197-0.787-0.588-1.375-0.984l-1.383-0.986c-0.197,0-0.391,0.199-0.787,0.396
		c-0.191,0.391-0.396,0.59-0.787,0.787H311.344L311.344,142.45z M318.426,155.042c-0.588-0.391-1.182-0.391-1.568-0.588v12.201
		h0.193l1.375-0.197V155.042z M311.344,165.081h-2.559v-1.771h2.559V165.081L311.344,165.081z M308.786,142.45h2.559v1.574h-0.391
		v3.936c0.191,0,0.191-0.199,0.391-0.199v1.773h-0.59v5.316c0.199,0,0.391,0,0.59,0.191v1.773h-0.391
		c-0.594,0-0.986-0.199-1.381-0.391c-0.199-0.199-0.393-0.787-0.393-1.184v-5.707c-0.197,0-0.395,0-0.395,0v-1.773
		c0.197,0,0.197,0,0.395,0v-3.736h-0.395V142.45L308.786,142.45z M311.344,158.389v1.771h-2.559v-1.771H311.344z M308.786,165.081
		h-2.561v-1.771h2.561V165.081L308.786,165.081z M306.225,147.563L306.225,147.563v-3.539l0,0v-1.574h2.561v1.574h-0.391v3.539
		c0,0,0.191,0,0.391,0.197v1.773c-0.199,0-0.391,0-0.59,0v3.936v0.395c-0.197,0.787-0.396,1.377-0.588,1.773
		c-0.199,0.588-0.596,1.178-0.793,1.568c-0.193,0-0.391-0.193-0.59-0.193v-1.184c0-0.391,0-0.787,0.199-1.375
		c0-0.59,0.197-0.984,0.197-1.184v-3.736h-0.396V147.563L306.225,147.563z M308.786,158.389v1.771h-2.561v-1.771H308.786z
		 M306.225,165.081h-0.391v0.986c-0.396,0-0.984,0.191-1.771,0.391l-1.574,0.197h-0.197v-19.879
		c0.588,0.199,1.182,0.199,1.771,0.396c0.391,0.197,1.178,0.391,1.771,0.588l0.391-0.197v1.971h-0.391v6.891
		c0-0.199,0.193-0.396,0.391-0.596l0,0v1.184c-0.197-0.197-0.197-0.197-0.391-0.197v1.574h0.391v1.771h-0.391v3.148h0.391V165.081
		L306.225,165.081z M306.225,144.024h-4.326v-1.574h4.326V144.024z"/>
	<path d="M340.073,140.678l2.367,0.588l2.355,0.396c-0.391,0.787-0.781,1.965-1.178,3.148c-0.199,0.984-0.59,1.574-0.787,2.164
		l-0.199,0.197v3.148c0.787-1.178,1.58-2.951,2.758-5.113c0.59-1.381,1.178-2.758,1.771-4.332l2.361,0.59
		c0.986,0.197,1.773,0.396,2.361,0.588l-0.787,1.377c-0.396,0.594-0.588,0.984-0.588,1.58h9.443c0.197-0.199,0.59-0.396,0.984-0.787
		c0.193-0.199,0.59-0.396,0.787-0.596l1.574,1.184c0.59,0.396,0.986,0.787,1.184,0.984v0.98h-9.449v4.332h4.133
		c0.193-0.199,0.59-0.59,0.787-0.787c0.391-0.199,0.59-0.391,0.984-0.59c0.391,0.391,0.98,0.787,1.377,1.178
		c0.588,0.396,0.984,0.596,1.375,0.986v0.984h-8.656v4.523h4.326l0.791-0.588c0.393-0.199,0.787-0.59,0.98-0.59
		c0.984,0.59,1.381,0.787,1.381,0.98c0.59,0.396,0.986,0.793,1.377,1.184v0.787h-8.855v6.691l-2.361,0.391
		c-0.984,0.199-1.771,0.199-2.361,0.396h-0.197v-19.879h-1.178c-0.596,0.594-1.184,1.381-1.773,1.971
		c-0.791,0.984-1.574,1.771-2.365,2.361l-0.391,0.396c-0.193-0.199-0.59-0.396-0.986-0.787l-0.787-0.396v15.547
		c-0.588,0.199-1.375,0.199-2.162,0.391l-2.361,0.396l0,0v-13.578c-0.396,0.193-0.594,0.393-0.787,0.59
		c-0.197,0.197-0.396,0.391-0.588,0.391c-0.396-0.193-0.787-0.391-0.787-0.588c-0.396-0.199-0.596-0.393-0.787-0.59
		c0.979-1.771,1.766-3.545,2.553-5.51c0.793-1.969,1.574-4.133,2.168-5.904C339.879,141.266,339.879,140.875,340.073,140.678z"/>
	<g>
		<path d="M165.127,184.401c0-0.77-0.02-1.32-0.08-1.912c0.572,0.059,1.047,0.078,1.816,0.078h3.729c0.631,0,1.084-0.02,1.598-0.059
			c-0.039,0.414-0.059,0.75-0.059,1.854v4.559c0,0.967,0.02,1.459,0.078,1.934h-1.281v-0.869h-4.578v1.244h-1.322
			c0.08-0.514,0.1-1.047,0.1-2.053V184.401z M166.35,188.879h4.578v-5.207h-4.578V188.879z M167.967,175.563
			c0-0.672-0.02-1.145-0.078-1.658c0.611,0.08,1.164,0.1,2.209,0.1h6.451c1.145,0,1.697-0.02,2.23-0.1
			c-0.059,0.514-0.078,0.928-0.078,1.639v3.334c0,0.75,0.02,1.262,0.078,1.736c-0.553-0.059-1.105-0.078-2.072-0.078h-6.727
			c-0.947,0-1.559,0.02-2.092,0.078c0.059-0.533,0.078-1.045,0.078-1.717V175.563z M169.211,179.411h8.227v-4.281h-8.227V179.411z
			 M174.084,184.204c0-0.926,0-1.223-0.061-1.695c0.494,0.039,0.928,0.059,1.6,0.059h4.34c0.75,0,1.223-0.02,1.697-0.078
			c-0.061,0.512-0.08,1.104-0.08,1.934v4.754c0,1.064,0.02,1.559,0.1,2.053h-1.342v-1.244h-5.051v1.244h-1.283
			c0.061-0.514,0.08-1.027,0.08-1.934V184.204z M175.288,188.879h5.07v-5.207h-5.07V188.879z"/>
		<path d="M196.272,183.87c-0.158,3.57-0.531,5.445-1.52,7.477c-0.334-0.414-0.65-0.689-1.045-0.928
			c1.125-2.09,1.461-4.438,1.461-10.338v-4.262c0-0.789-0.041-1.4-0.119-1.973h1.4c-0.078,0.514-0.098,1.164-0.098,1.953v2.979
			h1.953v-3.648c0-0.691-0.039-1.203-0.119-1.717h1.381c-0.078,0.514-0.098,0.967-0.098,1.717v3.648c0.492,0,0.867-0.02,1.281-0.078
			v1.283c-0.512-0.061-0.77-0.08-1.498-0.08h-2.9v0.039l-0.039,2.803h1.734c0.811,0,1.205-0.02,1.697-0.08
			c-0.039,0.455-0.039,0.928-0.039,1.561v4.951c0,0.789,0.02,1.42,0.098,2.053h-1.4c0.08-0.633,0.119-1.225,0.119-2.053v-5.307
			H196.272z M202.231,186.868c-0.789,0-1.461,0.039-2.012,0.1v-1.283c0.512,0.059,1.084,0.1,1.775,0.1h4.932v-0.869
			c0-0.967-0.02-1.381-0.098-1.895h1.4c-0.059,0.414-0.08,0.928-0.08,1.934v0.83h1.736c0.947,0,1.48-0.041,2.072-0.119v1.303
			c-0.611-0.08-1.203-0.1-2.031-0.1h-1.777v2.348c0,0.908,0.021,1.48,0.1,2.033h-1.439c0.078-0.553,0.117-1.145,0.117-2.053v-2.328
			H202.231z M209.196,175.168c0.887,0,1.381-0.02,1.895-0.08c-0.08,0.572-0.08,1.008-0.08,1.816v4.123c0,0.848,0,1.264,0.08,1.814
			c-0.514-0.039-1.027-0.059-1.717-0.059h-3.572c-0.275,0.475-0.512,0.789-0.867,1.145c-0.73,0.77-1.42,1.184-2.842,1.678
			c-0.217-0.514-0.295-0.633-0.709-1.047c1.498-0.375,2.564-0.967,3.176-1.775h-1.736c-0.611,0-1.145,0.02-1.637,0.059
			c0.059-0.611,0.078-1.025,0.078-1.775v-4.143c0-0.848-0.02-1.283-0.078-1.836c0.531,0.061,0.986,0.08,1.834,0.08h1.42
			c0.414-0.65,0.672-1.283,0.85-2.033l1.381,0.238c-0.336,0.689-0.691,1.361-0.967,1.795H209.196z M205.526,178.405
			c0.02-0.297,0.02-0.336,0.02-0.475v-1.736h-3.156v2.211H205.526z M205.053,181.758c0.334-0.967,0.373-1.223,0.453-2.348h-3.117
			v2.348H205.053z M209.866,181.758v-2.348h-3.215c-0.039,0.906-0.178,1.656-0.414,2.348H209.866z M209.866,178.405v-2.211h-3.176
			v1.775c-0.02,0.197-0.02,0.336-0.02,0.436H209.866z"/>
		<path d="M244.206,188.999c0,1.025,0.039,1.658,0.098,2.092h-1.4c0.059-0.611,0.098-1.283,0.098-2.092v-5.938
			c-0.906,0.986-1.164,1.223-2.662,2.504c-0.119-0.314-0.455-0.848-0.691-1.123c1.223-0.83,2.25-1.717,3.256-2.881
			c1.045-1.203,1.775-2.309,2.506-3.848h-3.65c-0.492,0-0.986,0.02-1.52,0.078v-1.281c0.514,0.059,0.947,0.078,1.48,0.078h3.709
			c0.492,0,0.77-0.02,0.928-0.059l0.572,0.711c-0.119,0.156-0.178,0.295-0.375,0.709c-0.553,1.184-1.066,1.992-2.17,3.453
			c0.906,0.631,1.912,1.52,2.939,2.564l-0.869,0.908c-0.867-1.006-1.342-1.5-2.248-2.27V188.999z M243.219,173.157
			c0.689,0.77,1.045,1.301,1.795,2.564l-1.025,0.631c-0.572-1.145-1.027-1.814-1.717-2.625L243.219,173.157z M253.143,176.905
			c-0.119,0.611-0.119,0.611-0.139,3.434c-0.02,3.451-0.316,5.09-1.264,6.648c-1.064,1.814-2.662,3.156-5.01,4.242
			c-0.217-0.436-0.455-0.73-0.811-1.086c1.5-0.65,2.447-1.203,3.256-1.953c1.322-1.203,2.111-2.584,2.367-4.223
			c0.178-1.164,0.197-1.617,0.197-5.248c0-1.184,0-1.322-0.098-1.814H253.143z M248.012,185.565c0.1-0.631,0.139-1.262,0.139-2.189
			v-7.162c0-1.242,0-1.52-0.078-2.09c0.611,0.059,1.223,0.078,2.229,0.078h4.281c0.986,0,1.639-0.02,2.23-0.078
			c-0.061,0.473-0.08,1.025-0.08,1.953v7.299c0,1.125,0.02,1.697,0.1,2.189h-1.5c0.098-0.631,0.139-1.262,0.139-2.189v-7.99h-6.059
			v7.99c0,1.125,0.021,1.697,0.1,2.189H248.012z M254.09,184.264c-0.041,0.631-0.061,1.084-0.061,1.795v2.82
			c0,0.572,0.158,0.711,0.889,0.711c0.928,0,1.381-0.139,1.559-0.512c0.178-0.336,0.295-1.342,0.314-2.447
			c0.297,0.158,0.691,0.295,1.244,0.414c-0.217,2.033-0.355,2.645-0.631,3.039c-0.355,0.453-1.205,0.67-2.703,0.67
			c-1.559,0-1.855-0.275-1.855-1.617v-3.098c0-0.809-0.02-1.203-0.059-1.775H254.09z"/>
		<path d="M279.217,181.995c-0.059,0.297-0.059,0.414-0.078,0.77c-0.119,2.762-0.336,3.729-1.006,4.814
			c-0.83,1.342-2.152,2.348-3.867,2.979c-1.164,0.414-2.072,0.572-3.789,0.691c-0.158-0.592-0.275-0.85-0.592-1.381
			c1.264-0.021,1.736-0.061,2.387-0.158c1.914-0.316,3.67-1.264,4.598-2.525c0.691-0.908,0.986-2.191,0.986-4.184
			c0-0.414-0.02-0.611-0.059-1.006H279.217z M270.338,178.03c0-0.73-0.02-1.066-0.078-1.639c0.533,0.061,1.045,0.08,2.072,0.08
			h1.715c-0.748-1.342-1.045-1.797-1.834-2.744l1.223-0.354c0.986,1.301,1.205,1.656,1.994,3.098h2.82
			c-0.67-1.539-0.947-2.033-1.539-2.861l1.203-0.355c0.711,1.105,1.105,1.895,1.619,3.217h2.031
			c0.809-1.027,1.264-1.777,1.816-3.098l1.203,0.492c-0.217,0.375-0.277,0.475-0.414,0.73c-0.592,1.045-0.77,1.303-1.205,1.875
			h1.777c1.223,0,1.637-0.02,2.031-0.08c-0.059,0.592-0.078,1.006-0.078,1.795v1.264c0,0.434,0.02,0.75,0.078,1.105h-1.303v-3.039
			h-13.908v3.039h-1.303c0.059-0.514,0.078-0.77,0.078-1.205V178.03z M273.042,186.75c0.1-0.791,0.139-1.441,0.139-2.408V181.7
			c0-1.125-0.02-1.539-0.078-2.27c0.592,0.078,1.064,0.098,2.15,0.098h6.51c1.086,0,1.559-0.02,2.15-0.098
			c-0.059,0.592-0.078,1.125-0.078,2.27v2.682c0,0.986,0.02,1.697,0.098,2.369h-1.459c0.098-0.75,0.139-1.422,0.139-2.369v-3.709
			h-8.229l0.02,3.67c0,1.559,0.02,1.795,0.1,2.408H273.042z M280.5,185.981c-0.08,0.531-0.1,0.986-0.1,2.031v0.828
			c0,0.336,0.059,0.494,0.236,0.592c0.197,0.119,0.711,0.178,1.461,0.178c2.703,0,3.314-0.078,3.551-0.492
			c0.217-0.375,0.316-1.066,0.316-2.506c0.434,0.314,0.709,0.434,1.184,0.572c-0.1,1.934-0.297,2.703-0.789,3.156
			c-0.494,0.434-1.342,0.572-3.77,0.572c-1.932,0-2.584-0.078-2.959-0.355c-0.375-0.256-0.473-0.572-0.473-1.4v-1.164
			c0-0.908-0.02-1.322-0.08-2.012H280.5z"/>
		<path d="M318.014,182.25c0-0.887,0.02-1.559,0.078-2.406c-0.65,1.164-0.906,1.52-2.15,2.979c-0.236-0.473-0.453-0.789-0.789-1.145
			c1.047-1.084,1.4-1.518,2.072-2.525c1.223-1.854,2.348-4.438,2.584-5.957l1.381,0.434c-0.098,0.217-0.098,0.217-0.414,1.064
			c-0.473,1.264-0.928,2.23-1.52,3.355v10.693c0,0.906,0.041,1.598,0.139,2.309h-1.52c0.1-0.691,0.139-1.283,0.139-2.369V182.25z
			 M325.413,180.377c-0.533,1.578-0.809,2.445-0.867,2.604h5.268c0.906,0,1.301-0.02,1.695-0.078l0.869,0.947
			c-0.336,0.354-0.336,0.354-1.264,1.459c-1.814,2.23-2.09,2.525-2.92,3.414c0.691,0.572,0.928,0.828,1.855,1.814l-0.889,0.889
			c-1.695-1.816-3.078-2.98-5.188-4.322l0.887-0.809c1.047,0.672,1.322,0.85,2.328,1.639c0.08-0.08,0.08-0.08,0.178-0.178
			c0.711-0.77,1.775-2.053,3.02-3.611h-6.059c-0.078,0-0.256,0.02-0.551,0.039c-0.219,0.02-0.455,0.02-1.186,0.061
			c0.553-1.125,0.889-1.994,1.5-3.867h-1.873c-0.691,0-1.322,0.039-1.914,0.098v-1.301c0.453,0.078,1.006,0.098,1.914,0.098h2.209
			c0.375-1.322,0.375-1.322,0.73-2.684h-1.953c-0.73,0-1.225,0.02-1.797,0.1v-1.303c0.494,0.078,0.947,0.1,1.797,0.1h2.209
			c0.139-0.572,0.139-0.572,0.158-0.652c0.117-0.473,0.236-1.242,0.236-1.539c0-0.059,0-0.059-0.02-0.158l1.52,0.08
			c-0.178,0.553-0.178,0.553-0.611,2.27h4.043c0.908,0,1.383-0.041,1.855-0.119v1.322c-0.611-0.08-1.086-0.1-1.834-0.1h-4.322
			c-0.492,2.053-0.492,2.053-0.689,2.684h5.801c0.926,0,1.42-0.02,1.893-0.098v1.301c-0.592-0.059-1.203-0.098-1.893-0.098H325.413z
			"/>
		<path d="M347.583,175.385c0-0.889-0.039-1.42-0.119-1.992h1.461c-0.08,0.533-0.119,1.064-0.119,1.992v1.875h0.475
			c0.531,0,0.809-0.02,1.164-0.08v1.264c-0.355-0.061-0.672-0.08-1.164-0.08h-0.475v3.533c0.73-0.355,0.986-0.514,1.717-0.988
			l0.059,1.186c-0.709,0.434-1.064,0.65-1.637,0.945c-0.08,0.021-0.08,0.041-0.139,0.061v6.549c0,1.105-0.375,1.383-1.795,1.383
			c-0.434,0-0.809-0.021-1.361-0.061c-0.039-0.453-0.1-0.75-0.256-1.223c0.611,0.098,1.184,0.158,1.637,0.158
			s0.553-0.08,0.553-0.434v-5.762c-0.592,0.275-0.85,0.395-1.125,0.514c-0.295,0.117-0.295,0.117-0.473,0.217
			c-0.1,0.039-0.158,0.059-0.197,0.078c-0.178,0.078-0.197,0.1-0.336,0.178l-0.355-1.322c0.809-0.178,1.264-0.336,2.486-0.908
			v-4.104h-0.928c-0.514,0-0.828,0.02-1.322,0.1v-1.303c0.434,0.08,0.77,0.1,1.322,0.1h0.928V175.385z M355.848,175.524
			c-1.281,0.137-2.762,0.236-4.834,0.314c-0.098-0.492-0.156-0.65-0.373-1.084c0.295,0.02,0.551,0.02,0.689,0.02
			c2.131,0,4.715-0.197,6.865-0.553c1.559-0.236,2.328-0.434,3.039-0.77l0.848,1.045c-0.373,0.08-0.373,0.08-1.123,0.258
			c-1.205,0.275-2.467,0.473-4.006,0.65v3.039h1.42c0.711-1.006,1.145-1.836,1.539-2.861l1.184,0.434
			c-0.729,1.342-0.828,1.48-1.518,2.428h1.559c0.689,0,1.242-0.039,1.676-0.1v1.145c-0.533-0.078-0.986-0.098-1.697-0.098h-3.273
			c1.281,1.361,3.334,2.623,5.543,3.393c-0.355,0.375-0.492,0.592-0.75,1.086c-0.453-0.197-0.453-0.197-1.064-0.514
			c0,0.059,0,0.059-0.02,0.217c-0.02,0.236-0.039,0.947-0.039,1.461v4.123c0,0.828,0.039,1.42,0.117,2.092h-1.281v-0.908h-7.715
			v0.889h-1.264c0.061-0.633,0.1-1.322,0.1-2.072v-4.104c0-0.592-0.02-1.184-0.059-1.559c-0.455,0.256-0.455,0.256-0.85,0.453
			c-0.197-0.414-0.355-0.65-0.73-1.045c2.053-0.789,3.887-2.053,5.092-3.512h-2.703c-0.633,0-1.145,0.02-1.52,0.078v-1.105
			c0.375,0.061,0.848,0.08,1.52,0.08h0.887c-0.236-0.652-0.512-1.225-1.045-2.072l1.064-0.355c0.475,0.869,0.77,1.52,1.105,2.428
			h1.617V175.524z M355.829,180.87c0-0.375,0.02-0.789,0.061-1.145c-1.086,1.381-2.389,2.506-4.125,3.553
			c0.436,0.02,1.184,0.039,1.6,0.039h6.371c0.514,0,1.264-0.02,1.539-0.039c0.1,0,0.1,0,0.139,0
			c-2.053-1.145-3.393-2.211-4.518-3.592c0.039,0.475,0.059,0.889,0.059,1.184v0.928c0,0.514,0.02,0.789,0.078,1.066h-1.281
			c0.059-0.336,0.078-0.594,0.078-1.066V180.87z M352.633,186.256h3.215v-1.934h-3.215V186.256z M352.633,189.334h3.215v-2.092
			h-3.215V189.334z M356.954,186.256h3.373v-1.934h-3.373V186.256z M356.954,189.334h3.373v-2.092h-3.373V189.334z"/>
	</g>
</g>
</svg>
