<?xml version="1.0" encoding="utf-8"?>
<!-- Generator: Adobe Illustrator 15.0.0, SVG Export Plug-In . SVG Version: 6.00 Build 0)  -->
<!DOCTYPE svg PUBLIC "-//W3C//DTD SVG 1.1//EN" "http://www.w3.org/Graphics/SVG/1.1/DTD/svg11.dtd">
<svg version="1.1" preserveAspectRatio="none" id="图层_1" xmlns="http://www.w3.org/2000/svg" xmlns:xlink="http://www.w3.org/1999/xlink" x="0px" y="0px"
	 width="513.669px" height="50.832px" viewBox="0 0 513.669 50.832" enable-background="new 0 0 513.669 50.832"
	 xml:space="preserve" >
<g>
	<path d="M6.961-205.935c14.282-3.06,25.099,7.556,24.285,15.107c-1.225,10.407-9.387,8.976-17.554,6.527
		c6.533,14.695,14.898,29.797,34.083,27.959c-4.083,4.287-12.653,8.161-20.611,1.634c-9.186-7.958-15.716-20.407-20.204-32.042
		v-3.467l1.425-1.024c5.102,5.311,23.674,10.408,18.979-3.263c-1.631-4.898-8.979-10.408-20.404-8.162V-205.935L6.961-205.935z
		 M6.961-156.75L6.961-156.75c2.856,0,5.305-2.448,5.305-5.305c0-3.061-2.449-5.51-5.305-5.51l0,0v2.042l0,0
		c1.833,0,3.261,1.629,3.261,3.468c0,1.838-1.428,3.264-3.261,3.264l0,0V-156.75z M0.021-203.48c1.021-0.413,2.039-0.82,2.856-1.228
		c1.431-0.407,2.856-0.814,4.083-1.227v3.269c-0.207,0-0.207,0-0.413,0c-2.24,0.814-4.282,1.629-6.527,2.653V-203.48L0.021-203.48z
		 M6.961-186.75c-0.413-1.018-0.617-1.838-1.024-2.856l1.024-0.611V-186.75L6.961-186.75z M6.961-167.564v2.042
		c-1.838,0-3.269,1.629-3.269,3.468c0,1.838,1.431,3.264,3.269,3.264v2.041c-3.063,0-5.308-2.448-5.308-5.305
		C1.653-165.115,3.898-167.564,6.961-167.564L6.961-167.564z M0.021-169.605v-2.042c1.833,0,3.264-1.426,3.264-3.264
		c0-1.838-1.431-3.468-3.264-3.468v-2.042c2.856,0,5.305,2.449,5.305,5.509C5.327-172.055,2.878-169.605,0.021-169.605z
		 M-25.691-185.115c7.548-7.347,15.713-13.88,25.713-18.365v3.467c-7.348,3.875-14.084,9.593-20.614,16.935L-25.691-185.115
		L-25.691-185.115z M0.021-180.42v2.042c-1.838,0-3.264,1.629-3.264,3.468c0,1.838,1.425,3.264,3.264,3.264v2.042
		c-3.063,0-5.309-2.449-5.309-5.306C-5.287-177.971-3.042-180.42,0.021-180.42z"/>
	<path d="M227.248-173.09v-3.34c2.949-0.198,5.112-0.985,6.885-2.367c1.772-1.568,2.56-3.737,2.56-6.296
		c0-2.752-0.787-4.722-2.361-6.098c-1.574-1.574-3.739-2.361-6.692-2.361c-0.192,0-0.192,0-0.391,0v-3.346c0,0,0.198,0,0.391,0
		c4.529,0,8.068,1.178,10.627,3.148c2.56,2.163,3.936,4.92,3.936,8.657c0,3.742-1.376,6.494-4.133,8.663
		C235.313-174.268,231.771-173.09,227.248-173.09L227.248-173.09z M252.435-173.679c0.79-0.391,1.379-0.787,1.571-1.376
		c0.198-0.396,0.396-1.375,0.396-2.757v-15.35h-1.771c-2.163,0-4.134,0.198-5.51,0.396c-1.574,0.391-2.952,0.787-3.935,1.376
		c0-0.589,0.394-1.376,0.589-2.163c0.394-0.787,0.592-1.381,0.592-1.574c0-0.198-0.198-0.595-0.198-1.184h-0.195h25.974l0,0
		c-0.195,0.589-0.195,0.985-0.195,1.184c0,0.192,0,0.787,0.394,1.574c0.394,0.787,0.592,1.574,0.79,2.163
		c-1.184-0.589-2.56-0.985-3.94-1.376c-1.571-0.198-3.341-0.396-5.51-0.396h-1.965v15.35c0,0.985,0.198,1.97,0.589,2.559
		c0.396,0.787,0.787,1.375,1.574,1.574H252.435z M227.248-196.898v3.346c-2.953,0.193-5.121,0.98-6.891,2.361
		c-1.772,1.574-2.56,3.737-2.56,6.494c0,2.554,0.787,4.524,2.367,5.9c1.573,1.58,3.932,2.367,6.687,2.367c0.198,0,0.198,0,0.396,0
		v3.34c-0.198,0-0.198,0-0.396,0c-4.328,0-8.065-0.979-10.627-3.148c-2.56-2.163-3.936-4.92-3.936-8.657
		c0-3.544,1.376-6.494,4.133-8.657C219.18-195.721,222.719-196.7,227.248-196.898L227.248-196.898z M135.935-173.09v-3.34
		c2.754-0.198,5.116-0.985,6.69-2.367c1.772-1.568,2.757-3.737,2.757-6.296c0-2.752-0.787-4.722-2.361-6.098
		c-1.577-1.574-3.94-2.361-6.692-2.361c-0.195,0-0.394,0-0.394,0v-3.346h0.198c4.527,0,8.065,1.178,10.82,3.148
		c2.56,2.163,3.743,4.92,3.743,8.657c0,3.742-1.379,6.494-3.938,8.663C144-174.268,140.459-173.09,135.935-173.09L135.935-173.09z
		 M169.587-176.827c1.965,0,3.935-0.198,5.509-0.589c1.772-0.396,3.151-0.985,4.133-1.574c-0.588,1.178-0.981,2.163-1.375,2.95
		c-0.396,0.787-0.396,1.183-0.396,1.574c0,0,0,0.198,0,0.396c0,0,0.198,0.192,0.396,0.391h-25.779l17.314-19.482h-7.281
		c-2.166,0-3.935,0.198-5.311,0.396c-1.378,0.391-2.757,0.787-3.94,1.376c0.396-0.985,0.792-1.97,0.985-2.752
		c0.198-0.792,0.394-1.183,0.394-1.381s-0.195-0.396-0.394-0.787l0,0h24.208l-17.122,19.483H169.587L169.587-176.827z
		 M186.708-193.161l0.193,15.35c0.198,1.183,0.198,2.163,0.591,2.757c0.395,0.589,0.787,0.985,1.574,1.376h-8.855
		c0.79-0.391,1.379-0.787,1.574-1.376c0.394-0.594,0.592-1.574,0.592-2.757v-14.365c0-1.183-0.198-1.965-0.592-2.757
		c-0.195-0.589-0.784-0.985-1.574-1.376h10.433c0,0.198-0.198,0.198-0.198,0.198c0,0.193,0,0.193,0,0.391c0,0,0,0,0,0.198
		c0,0,0.198,0.198,0.198,0.396l12.79,17.71l-0.195-14.761c0-1.183,0-1.965-0.394-2.757c-0.396-0.589-0.79-0.985-1.574-1.376h8.459
		c-0.589,0.391-1.18,0.787-1.376,1.376c-0.396,0.396-0.396,1.381-0.396,2.56v0.198v16.335c0,0.589,0,0.985,0,1.375
		c0.198,0.198,0.396,0.589,0.592,0.787h-8.462c0.198-0.198,0.198-0.198,0.198-0.391c0.195,0,0.195-0.198,0.195-0.198
		s-0.195-0.198-0.195-0.396c0,0-0.198-0.192-0.198-0.391L186.708-193.161z M135.935-196.898v3.346
		c-2.953,0.193-5.314,0.98-6.888,2.361c-1.772,1.574-2.757,3.737-2.757,6.494c0,2.554,0.985,4.524,2.559,5.9
		c1.577,1.58,3.737,2.367,6.692,2.367c0,0,0.195,0,0.394,0v3.34c-0.198,0-0.198,0-0.394,0c-4.529,0-8.068-0.979-10.627-3.148
		c-2.559-2.163-3.935-4.92-3.935-8.657c0-3.544,1.376-6.494,4.133-8.657C127.669-195.721,131.408-196.7,135.935-196.898
		L135.935-196.898z M104.254-182.336v-3.544h0.589c2.556,0,4.328-0.391,5.311-0.787c0.985-0.589,1.574-1.574,1.574-2.752
		c0-1.381-0.589-2.366-1.373-2.757c-0.988-0.589-2.757-0.985-5.319-0.985h-0.781v-3.148h0.589c2.361,0,4.328,0,5.512,0.198
		c1.181,0.193,2.16,0.391,2.947,0.787c1.183,0.391,2.168,1.183,2.757,2.163c0.787,0.985,0.985,2.168,0.985,3.346
		c0,1.574-0.592,2.95-1.772,4.133c-1.379,0.985-3.148,1.772-5.509,2.163c0.979,0.396,1.965,0.985,2.752,1.574
		c0.787,0.594,1.577,1.58,2.559,2.955c0.198,0.193,0.592,0.589,0.985,1.178c1.378,2.163,2.559,3.544,3.737,4.133h-9.246
		c0.192-0.198,0.391-0.198,0.391-0.391c0.198-0.198,0.198-0.396,0.198-0.787c0-0.594-0.198-1.381-0.589-2.168
		c-0.396-0.787-0.985-1.574-1.772-2.361c-1.181-1.178-2.364-2.163-3.346-2.559C105.035-182.143,104.645-182.336,104.254-182.336z
		 M64.303-177.812c0,1.183,0,2.163,0.391,2.757c0.396,0.589,0.792,0.985,1.577,1.376h-9.056c0.594-0.391,1.183-0.787,1.381-1.376
		c0.394-0.787,0.589-1.574,0.589-2.757v-14.365c0-1.183-0.195-1.965-0.589-2.559c-0.198-0.787-0.787-1.183-1.381-1.574h9.056
		c-0.784,0.391-1.18,0.787-1.577,1.376c-0.391,0.595-0.391,1.574-0.391,2.757v7.281l12.399-8.657
		c0.391-0.396,0.782-0.589,0.98-0.985c0.198-0.396,0.396-0.589,0.396-0.787s0-0.396-0.198-0.594c0-0.193-0.198-0.193-0.396-0.391
		h10.828c-0.985,0.391-1.772,0.787-2.757,1.376c-0.79,0.396-1.571,0.985-2.166,1.381l-8.459,5.708l9.835,10.82
		c0.79,0.787,1.378,1.376,2.168,1.97c0.589,0.391,1.378,0.985,2.163,1.376H78.863c0.394-0.198,0.592-0.198,0.79-0.391
		c0-0.198,0.198-0.396,0.198-0.595c0-0.391-0.198-0.588-0.396-0.985c-0.198-0.391-0.592-0.781-1.178-1.376l-7.287-8.068
		l-6.687,4.728V-177.812L64.303-177.812z M104.254-196.31v3.148h-7.678v7.281h7.678v3.544c-0.985-0.198-1.971-0.396-2.956-0.396
		h-4.722v4.92c0,1.183,0.198,1.97,0.592,2.757c0.195,0.589,0.784,0.985,1.577,1.376h-9.251c0.787-0.391,1.376-0.787,1.574-1.376
		c0.396-0.787,0.589-1.574,0.589-2.757v-14.563c0-0.985-0.193-1.767-0.589-2.56c-0.396-0.589-0.787-0.985-1.574-1.376H104.254z"/>
	<path d="M302.421-198.274c0.782,0.192,1.376,0.192,1.767,0.391h0.198v3.346h1.184c0,0,0.192-0.198,0.589-0.589
		c0.396-0.198,0.589-0.396,0.787-0.396c0.589,0.396,1.184,0.787,1.381,0.985c0.59,0.396,0.98,0.787,1.178,0.985v0.787h-5.118v4.524
		h1.574c0,0,0.198-0.198,0.595-0.787c0.391-0.198,0.589-0.391,0.787-0.589c0,0,0.589,0.391,1.376,0.985
		c0.589,0.589,0.984,0.979,1.376,1.178v0.787h-5.708v1.772c-0.589,0-1.183,0.198-1.767,0.198c-0.198,0-0.198,0-0.198,0.198V-198.274
		L302.421-198.274z M302.421-174.664h2.752v1.971l0,0c0.787-0.198,1.382-0.198,1.971-0.396c0.787,0,1.376-0.192,1.965-0.192v-8.465
		c0.198-0.198,0.396-0.396,0.787-0.787c-0.589-0.391-1.376-0.787-1.965-1.178c-0.198-0.198-0.787-0.595-1.376-1.184
		c-0.198,0.198-0.595,0.396-0.985,0.589c-0.396,0.198-0.595,0.396-0.792,0.595h-2.356v1.767h2.752v5.707h-2.752V-174.664z
		 M300.451-198.472c0.396,0,1.184,0.198,1.97,0.198l0,0v13.775c-0.594,0-1.183,0.192-1.771,0.192h-0.198v-2.361h-3.347v-1.574h3.347
		v-4.524h-2.361c-0.198,0.391-0.594,0.98-0.787,1.376c0,0.198,0,0.198-0.198,0.396v-6.692h0.589
		c0.595,0.198,1.184,0.391,1.772,0.391c-0.198,0.396-0.198,0.787-0.391,1.183c0,0.193,0,0.589-0.198,1.178l0.198,0.396h1.376
		V-198.472L300.451-198.472z M302.421-183.711v1.767h-2.955v5.707h2.955v1.574h-2.955v1.382l-1.772,0.192l-0.589,0.198v-11.415
		c0.198,0,0.198,0,0.392,0c0.984,0.396,1.771,0.595,2.168,0.595H302.421z M297.104-186.667h-3.147v13.187l-1.772,0.198
		c-0.589,0.192-1.184,0.192-1.97,0.192v-1.178h-0.193v-1.772h0.193v-3.148h-0.193v-1.772h0.193v-1.574h-0.193v-1.772
		c0.193,0,0.391,0,0.589,0.198v-5.707h-0.589v-1.772c0.193-0.198,0.589-0.198,0.787-0.391l0.985-0.594
		c0.192,0.198,0.787,0.396,1.178,0.787c0.595,0.396,1.184,0.792,1.772,0.985c0.197-0.787,0.396-2.163,0.594-3.737
		c0.198-1.184,0.198-2.163,0.391-2.95l0.193-0.396l1.183,0.198v6.692c-0.192,0.589-0.589,0.979-0.786,1.574
		c-0.396,0-0.782-0.198-1.179-0.198c-0.594-0.198-0.984-0.198-1.183-0.396v1.772h3.147V-186.667L297.104-186.667z M290.021-196.898
		v1.574h4.92v-0.787c-0.396-0.198-0.786-0.589-1.375-0.985l-1.382-0.985c-0.198,0-0.391,0.198-0.787,0.396
		c-0.192,0.391-0.396,0.589-0.787,0.787H290.021L290.021-196.898z M297.104-184.306c-0.589-0.391-1.183-0.391-1.568-0.589v12.202
		h0.192l1.376-0.198V-184.306z M290.021-174.268h-2.559v-1.772h2.559V-174.268L290.021-174.268z M287.463-196.898h2.559v1.574
		h-0.391v3.935c0.192,0,0.192-0.198,0.391-0.198v1.772h-0.589v5.316c0.198,0,0.391,0,0.589,0.192v1.772h-0.391
		c-0.594,0-0.985-0.198-1.381-0.391c-0.198-0.198-0.392-0.787-0.392-1.183v-5.707c-0.198,0-0.396,0-0.396,0v-1.772
		c0.197,0,0.197,0,0.396,0v-3.737h-0.396V-196.898L287.463-196.898z M290.021-180.96v1.772h-2.559v-1.772H290.021z M287.463-174.268
		h-2.56v-1.772h2.56V-174.268L287.463-174.268z M284.903-191.785L284.903-191.785v-3.539l0,0v-1.574h2.56v1.574h-0.391v3.539
		c0,0,0.192,0,0.391,0.198v1.772c-0.198,0-0.391,0-0.589,0v3.935v0.396c-0.198,0.787-0.396,1.376-0.589,1.772
		c-0.198,0.589-0.595,1.178-0.793,1.568c-0.192,0-0.391-0.193-0.589-0.193v-1.183c0-0.391,0-0.787,0.198-1.376
		c0-0.589,0.198-0.985,0.198-1.183v-3.737h-0.396V-191.785L284.903-191.785z M287.463-180.96v1.772h-2.56v-1.772H287.463z
		 M284.903-174.268h-0.391v0.985c-0.396,0-0.985,0.192-1.772,0.391l-1.574,0.198h-0.197v-19.879
		c0.589,0.198,1.183,0.198,1.771,0.396c0.391,0.198,1.178,0.391,1.772,0.589l0.391-0.198v1.97h-0.391v6.89
		c0-0.198,0.192-0.396,0.391-0.594l0,0v1.183c-0.198-0.198-0.198-0.198-0.391-0.198v1.574h0.391v1.772h-0.391v3.148h0.391V-174.268
		L284.903-174.268z M284.903-195.324h-4.326v-1.574h4.326V-195.324z"/>
	<path d="M318.75-198.67l2.367,0.589l2.355,0.396c-0.391,0.787-0.781,1.964-1.178,3.148c-0.198,0.985-0.589,1.574-0.787,2.163
		l-0.198,0.198v3.148c0.787-1.178,1.579-2.95,2.757-5.113c0.59-1.381,1.178-2.757,1.772-4.331l2.361,0.589
		c0.985,0.198,1.772,0.396,2.361,0.589l-0.787,1.376c-0.396,0.594-0.589,0.985-0.589,1.58h9.443c0.198-0.198,0.59-0.396,0.985-0.787
		c0.192-0.198,0.589-0.396,0.787-0.595l1.574,1.184c0.589,0.396,0.985,0.787,1.184,0.985v0.98h-9.45v4.331h4.134
		c0.192-0.198,0.589-0.589,0.786-0.787c0.392-0.198,0.59-0.391,0.985-0.589c0.391,0.391,0.979,0.787,1.376,1.178
		c0.589,0.396,0.985,0.595,1.376,0.985v0.985h-8.657v4.524h4.326l0.792-0.589c0.392-0.198,0.787-0.589,0.979-0.589
		c0.985,0.589,1.382,0.787,1.382,0.979c0.589,0.396,0.985,0.792,1.376,1.183v0.787h-8.855v6.692l-2.361,0.391
		c-0.984,0.198-1.771,0.198-2.36,0.396h-0.198v-19.879h-1.178c-0.595,0.594-1.184,1.381-1.772,1.97
		c-0.792,0.985-1.574,1.772-2.366,2.361l-0.391,0.396c-0.193-0.198-0.589-0.396-0.985-0.787l-0.787-0.396v15.548
		c-0.589,0.198-1.376,0.198-2.163,0.391l-2.361,0.396l0,0v-13.578c-0.396,0.193-0.594,0.391-0.786,0.589
		c-0.198,0.198-0.396,0.391-0.589,0.391c-0.396-0.193-0.787-0.391-0.787-0.589c-0.396-0.198-0.595-0.391-0.787-0.589
		c0.979-1.772,1.767-3.544,2.554-5.509c0.792-1.97,1.573-4.133,2.168-5.905C318.558-198.082,318.558-198.472,318.75-198.67z"/>
	<text transform="matrix(1 0 0 1 142.1475 -149.6396)" font-family="'HiraginoSansGB-W3'" font-size="19.7248" letter-spacing="9">品牌 视觉 传播</text>
</g>
<linearGradient id="SVGID_1_" gradientUnits="userSpaceOnUse" x1="1.1553" y1="-90.3789" x2="468.9565" y2="121.4851">
	<stop  offset="0.2623" style="stop-color:#FFFFFF"/>
	<stop  offset="0.9607" style="stop-color:#000000"/>
</linearGradient>
<rect fill="url(#SVGID_1_)" width="513.669" height="50.832"/>
<g opacity="0.4">
	<path fill="#FFFFFF" d="M385.96-30.553c25.766-20.647,58.379-10.146,64.379,5.94c8.065,22.274-9.88,27.646-28.866,30.967
		c28.084,23.084,60.284,45.135,97.196,21.992c-3.911,12.799-17.307,29.307-40,24.174c-26.622-6.782-52.428-25.329-73.279-44.299
		l-3.512-7.007l1.845-3.512c15.689,5.566,58.385-2.94,35.052-25.814c-8.257-8.248-28.687-11.944-49.503,4.166L385.96-30.553
		L385.96-30.553z M435.769,68.853L435.769,68.853c5.772-2.893,8.242-10.321,5.351-16.093c-3.1-6.187-10.528-8.656-16.302-5.764l0,0
		l2.067,4.127l0,0c3.705-1.855,8.24-0.01,10.103,3.707c1.861,3.714,0.418,8.042-3.285,9.897l0,0L435.769,68.853z M374.421-18.564
		c1.645-1.865,3.29-3.722,4.529-5.373c2.48-2.271,4.947-4.538,7.01-6.615l3.312,6.607c-0.418,0.209-0.418,0.209-0.834,0.417
		c-3.703,3.915-7.005,7.629-10.505,11.972L374.421-18.564L374.421-18.564z M405.39,8.222c-1.865-1.639-3.108-3.09-4.962-4.735
		l1.45-2.271L405.39,8.222L405.39,8.222z M424.817,46.996l2.067,4.127c-3.716,1.862-4.957,6.603-3.095,10.319
		c1.861,3.714,6.196,5.146,9.912,3.285l2.066,4.125c-6.189,3.102-13.207,0.428-16.1-5.346
		C416.569,57.321,418.627,50.098,424.817,46.996L424.817,46.996z M408.725,49.898l-2.067-4.127c3.703-1.856,5.151-6.187,3.291-9.9
		c-1.862-3.716-6.403-5.56-10.108-3.703l-2.066-4.125c5.772-2.894,13.202-0.423,16.3,5.76
		C416.966,39.577,414.497,47.006,408.725,49.898z M341.051,44.591c7.816-22.493,17.701-43.963,33.37-63.155l3.512,7.008
		c-10.928,15.271-18.75,33.65-24.513,55.102L341.051,44.591L341.051,44.591z M397.773,28.043l2.066,4.125
		c-3.715,1.86-4.946,6.597-3.084,10.313c1.861,3.714,6.186,5.152,9.901,3.291l2.067,4.127c-6.19,3.102-13.21,0.427-16.102-5.347
		C389.524,38.368,391.583,31.145,397.773,28.043z"/>
</g>
</svg>
